<!-- Created with PixiEditor (https://pixieditor.net) -->
<svg version="1.1" viewBox="0 0 256 256" xmlns="http://www.w3.org/2000/svg">
  <path d="M12.3633 69.4499Q12.3633 70.483 12.417 71.5149Q12.4718 72.5467 12.5791 73.5748Q12.6876 74.6028 12.8497 75.6247Q13.0119 76.6467 13.2277 77.6599Q13.4424 78.6731 13.7108 79.6753Q13.9792 80.6774 14.2991 81.666Q14.6201 82.6547 14.9915 83.6275Q15.364 84.6004 15.7868 85.5548Q16.2086 86.5092 16.6808 87.4428Q17.153 88.3764 17.6733 89.2881Q18.1937 90.1987 18.7612 91.085Q19.3287 91.9713 19.9422 92.8299Q20.5556 93.6896 21.213 94.5194Q21.8703 95.3492 22.5714 96.1478Q23.2715 96.9463 24.0131 97.7115Q24.7537 98.4766 25.5348 99.2071Q26.3159 99.9376 27.1332 100.631Q27.9515 101.325 28.8049 101.98Q29.6584 102.636 30.5446 103.252Q31.432 103.867 32.3501 104.441Q33.2681 105.014 34.2146 105.546Q35.1612 106.077 36.1351 106.564Q37.109 107.051 38.107 107.493Q39.1051 107.934 40.125 108.33Q41.1449 108.726 42.1835 109.073Q43.2231 109.422 44.2803 109.722Q45.3364 110.02 46.4067 110.272Q47.4781 110.522 48.5605 110.724Q49.644 110.926 50.7362 111.078Q51.8274 111.229 52.9262 111.33Q54.025 111.432 55.1282 111.483Q56.2303 111.533 57.3346 111.533Q58.4389 111.533 59.1849 111.33Q60.2881 111.28 59.3977 111.33Q60.4965 111.229 63.9329 110.724Q65.0252 110.573 66.261 110.469Q67.3445 110.267 68.2613 110.183Q69.3327 109.931 72.2611 109.915Q73.3172 109.615 72.4846 109.073Q73.5242 108.726 74.5442 108.33Q75.5641 107.934 76.5621 107.493Q77.5602 107.051 78.5341 106.564Q79.5069 106.077 80.4545 105.546Q81.4011 105.014 82.3191 104.441Q83.2372 103.867 84.1234 103.252Q85.0108 102.636 85.8642 101.98Q86.7176 101.325 87.5349 100.631Q88.3532 99.9376 89.1344 99.2071Q89.9144 98.4766 90.656 97.7115Q91.3977 96.9463 92.0977 96.1478Q92.7978 95.3492 93.4551 94.5194Q94.1135 93.6896 94.727 92.8299Q95.3405 91.9713 95.908 91.085Q96.4755 90.1987 96.9958 89.2881Q97.5162 88.3764 97.9884 87.4428Q98.4595 86.5092 98.8823 85.5548Q99.3052 84.6004 99.6766 83.6275Q100.049 82.6547 100.369 81.666Q100.69 80.6774 100.958 79.6753Q101.226 78.6731 101.441 77.6599Q101.657 76.6467 101.819 75.6247Q101.98 74.6028 102.089 73.5748Q102.197 72.5467 102.251 71.5149Q102.306 70.483 102.306 69.4499Q102.306 68.4168 102.251 67.385Q102.197 66.3531 102.089 65.325Q101.98 64.2969 101.819 63.275Q101.657 62.2531 101.441 61.2399Q101.226 60.2266 100.958 59.2244Q100.69 58.2224 100.369 57.2337Q100.049 56.2452 99.6766 55.2724Q99.3052 54.2998 98.8823 53.3453Q98.4595 52.3909 97.9884 51.4569Q97.5162 50.5231 96.9958 49.612Q96.4755 48.7009 95.908 47.8148Q95.3405 46.9286 94.727 46.0696Q94.1135 45.2107 93.4551 44.3809Q92.7978 43.5511 92.0977 42.7526Q91.3977 41.954 90.656 41.1885Q89.9144 40.423 89.1344 39.6925Q88.3532 38.962 87.5349 38.2682Q86.7176 37.5744 85.8642 36.919Q85.0108 36.2636 84.1234 35.6483Q83.2372 35.0329 82.3191 34.459Q81.4011 33.8849 80.4545 33.3538Q79.5069 32.8228 78.5341 32.3358Q77.5602 31.8488 76.5621 31.4071Q75.5641 30.9653 74.5442 30.7422Q73.5242 30.3469 72.0724 30.0138Q71.0328 29.6658 70.3439 29.4008Q69.2878 29.1009 68.2613 28.6278Q67.191 28.3768 66.1075 28.1752Q65.0252 27.9737 63.9329 27.8221Q62.8407 27.6705 61.7419 27.5692Q60.6441 27.468 59.541 27.4174Q58.4389 27.3666 57.3346 27.3666Q56.2303 27.3666 55.1282 27.4174Q54.025 27.468 52.9262 27.5692Q51.8274 27.6705 50.7362 27.8221Q49.644 27.9737 48.5605 28.1752Q47.4781 28.3768 46.4067 28.6278Q45.3364 28.8788 44.2803 29.1788Q43.2231 29.4786 42.1835 29.8266Q41.1449 30.1747 40.125 30.57Q39.1051 30.9653 38.107 31.4071Q37.109 31.8488 36.1351 32.3358Q35.1612 32.8228 34.2146 33.3538Q33.2681 33.8849 32.3501 34.459Q31.432 35.0329 30.5446 35.6483Q29.6584 36.2636 28.8049 36.919Q27.9515 37.5744 27.1332 38.2682Q26.3159 38.962 25.5348 39.6925Q24.7537 40.423 24.0131 41.1885Q23.2715 41.954 22.5714 42.7526Q21.8703 43.5511 21.213 44.3809Q20.5556 45.2107 19.9422 46.0696Q19.3287 46.9286 18.7612 47.8148Q18.1937 48.7009 17.6733 49.612Q17.153 50.5231 16.6808 51.4569Q16.2086 52.3909 15.7868 53.3453Q15.364 54.2998 14.9915 55.2724Q14.6201 56.2452 14.2991 57.2337Q13.9792 58.2224 13.7108 59.2244Q13.4424 60.2266 13.2277 61.2399Q13.0119 62.2531 12.8497 63.275Q12.6876 64.2969 12.5791 65.325Q12.4718 66.3531 12.417 67.385Q12.3633 68.4168 12.3633 69.4499ZM0.12413 166.184C0.12413 166.184 0.12413 218.648 0.12413 229.195C0.12413 248.373 38.4204 230.097 57.3203 232.415C81.9784 232.415 108.165 249.235 113.677 229.195C115.609 222.171 113.875 174.044 113.677 166.184C113.677 142.926 111.314 114.921 91.3769 104.515C88.2842 102.901 83.763 106.038 77.6544 109.561C73.8965 111.729 69.5695 114.173 65.4579 115.319C63.0034 116.003 60.9069 116.862 58.9747 117.454C57.7413 117.832 56.6312 118.109 55.7383 118.384C55.0619 118.591 52.8789 119.388 52.3785 119.388C48.3229 119.388 41.9326 117.234 33.7808 112.331C30.5249 110.372 23.7206 105.845 21.3444 107.059C1.5757 117.154 -0.635056 139.597 0.12413 166.184ZM68.8683 114.173C68.8683 114.173 70.4239 116.167 68.8683 120.238C67.2863 124.376 68.2537 127.588 67.455 132.356C65.6901 142.894 61.9719 156.639 62.064 170.825C62.2283 196.358 61.0188 227.741 61.0188 232.358L51.4012 232.358L44.2803 232.953C44.2803 232.953 44.2803 201.105 44.2803 170.825C44.2803 157.607 47.2689 144.466 48.5605 134.987C49.5345 127.839 51.6182 120.589 52.3785 119.388M77.2556 31.659L84.1234 35.3276L80.3691 41.7594L76.2192 46.6641L80.3691 52.0015L78.7258 55.3194L80.3691 59.694L78.7258 66.1054L81.7659 68.3504L84.1892 76.3325L88.2974 79.9389L92.0977 87.0317L96.1304 90.8969L91.9126 96.3924L89.1344 96.1478L88.2974 98.4697L85.5399 98.4697L83.4858 100.335L80.3691 102.05L78.7258 102.711L77.2556 104.515L75.4804 106.014L72.7278 108.34L72.4846 109.722L58.1095 111.483L63.9329 104.515L67.2407 100.631L71.1809 96.3924L74.1001 93.3099L78.1599 89.9349L77.6544 89.2881L77.6544 89.2881L77.6544 89.2881L73.4369 83.6275L70.3439 77.6599L67.2407 69.4499L65.4579 63.275L63.9329 55.2724L63.9329 47.8148L64.731 41.1885L65.692 35.6483L67.2407 28.3624" fill-rule="nonzero" transform="matrix(1, 0, 0, 1, 0, 0)" fill="#8fdd28" fill-opacity="1" stroke="#000000" stroke-width="0" stroke-linecap="round" stroke-linejoin="round" opacity="1" id="Path" />
  <path d="M243.637 69.4499Q243.637 70.483 243.583 71.5149Q243.528 72.5467 243.421 73.5748Q243.312 74.6028 243.15 75.6247Q242.988 76.6467 242.772 77.6599Q242.558 78.6731 242.289 79.6753Q242.021 80.6774 241.701 81.666Q241.38 82.6547 241.009 83.6275Q240.636 84.6004 240.213 85.5548Q239.791 86.5092 239.319 87.4428Q238.847 88.3764 238.327 89.2881Q237.806 90.1987 237.239 91.085Q236.671 91.9713 236.058 92.8299Q235.444 93.6896 234.787 94.5194Q234.13 95.3492 233.429 96.1478Q232.729 96.9463 231.987 97.7115Q231.246 98.4766 230.465 99.2071Q229.684 99.9376 228.867 100.631Q228.048 101.325 227.195 101.98Q226.342 102.636 225.455 103.252Q224.568 103.867 223.65 104.441Q222.732 105.014 221.785 105.546Q220.839 106.077 219.865 106.564Q218.891 107.051 217.893 107.493Q216.895 107.934 215.875 108.33Q214.855 108.726 213.816 109.073Q212.777 109.422 211.72 109.722Q210.664 110.02 209.593 110.272Q208.522 110.522 207.439 110.724Q206.356 110.926 205.264 111.078Q204.173 111.229 203.074 111.33Q201.975 111.432 200.872 111.483Q199.77 111.533 198.665 111.533Q197.561 111.533 196.815 111.33Q195.712 111.28 196.602 111.33Q195.503 111.229 192.067 110.724Q190.975 110.573 189.739 110.469Q188.655 110.267 187.739 110.183Q186.667 109.931 183.739 109.915Q182.683 109.615 183.515 109.073Q182.476 108.726 181.456 108.33Q180.436 107.934 179.438 107.493Q178.44 107.051 177.466 106.564Q176.493 106.077 175.545 105.546Q174.599 105.014 173.681 104.441Q172.763 103.867 171.877 103.252Q170.989 102.636 170.136 101.98Q169.282 101.325 168.465 100.631Q167.647 99.9376 166.866 99.2071Q166.086 98.4766 165.344 97.7115Q164.602 96.9463 163.902 96.1478Q163.202 95.3492 162.545 94.5194Q161.886 93.6896 161.273 92.8299Q160.659 91.9713 160.092 91.085Q159.525 90.1987 159.004 89.2881Q158.484 88.3764 158.012 87.4428Q157.541 86.5092 157.118 85.5548Q156.695 84.6004 156.323 83.6275Q155.951 82.6547 155.631 81.666Q155.31 80.6774 155.042 79.6753Q154.774 78.6731 154.559 77.6599Q154.343 76.6467 154.181 75.6247Q154.02 74.6028 153.911 73.5748Q153.803 72.5467 153.749 71.5149Q153.694 70.483 153.694 69.4499Q153.694 68.4168 153.749 67.385Q153.803 66.3531 153.911 65.325Q154.02 64.2969 154.181 63.275Q154.343 62.2531 154.559 61.2399Q154.774 60.2266 155.042 59.2244Q155.31 58.2224 155.631 57.2337Q155.951 56.2452 156.323 55.2724Q156.695 54.2998 157.118 53.3453Q157.541 52.3909 158.012 51.4569Q158.484 50.5231 159.004 49.612Q159.525 48.7009 160.092 47.8148Q160.659 46.9286 161.273 46.0696Q161.886 45.2107 162.545 44.3809Q163.202 43.5511 163.902 42.7526Q164.602 41.954 165.344 41.1885Q166.086 40.423 166.866 39.6925Q167.647 38.962 168.465 38.2682Q169.282 37.5744 170.136 36.919Q170.989 36.2636 171.877 35.6483Q172.763 35.0329 173.681 34.459Q174.599 33.8849 175.545 33.3538Q176.493 32.8228 177.466 32.3358Q178.44 31.8488 179.438 31.4071Q180.436 30.9653 181.456 30.7422Q182.476 30.3469 183.928 30.0138Q184.967 29.6658 185.656 29.4008Q186.712 29.1009 187.739 28.6278Q188.809 28.3768 189.892 28.1752Q190.975 27.9737 192.067 27.8221Q193.159 27.6705 194.258 27.5692Q195.356 27.468 196.459 27.4174Q197.561 27.3666 198.665 27.3666Q199.77 27.3666 200.872 27.4174Q201.975 27.468 203.074 27.5692Q204.173 27.6705 205.264 27.8221Q206.356 27.9737 207.439 28.1752Q208.522 28.3768 209.593 28.6278Q210.664 28.8788 211.72 29.1788Q212.777 29.4786 213.816 29.8266Q214.855 30.1747 215.875 30.57Q216.895 30.9653 217.893 31.4071Q218.891 31.8488 219.865 32.3358Q220.839 32.8228 221.785 33.3538Q222.732 33.8849 223.65 34.459Q224.568 35.0329 225.455 35.6483Q226.342 36.2636 227.195 36.919Q228.048 37.5744 228.867 38.2682Q229.684 38.962 230.465 39.6925Q231.246 40.423 231.987 41.1885Q232.729 41.954 233.429 42.7526Q234.13 43.5511 234.787 44.3809Q235.444 45.2107 236.058 46.0696Q236.671 46.9286 237.239 47.8148Q237.806 48.7009 238.327 49.612Q238.847 50.5231 239.319 51.4569Q239.791 52.3909 240.213 53.3453Q240.636 54.2998 241.009 55.2724Q241.38 56.2452 241.701 57.2337Q242.021 58.2224 242.289 59.2244Q242.558 60.2266 242.772 61.2399Q242.988 62.2531 243.15 63.275Q243.312 64.2969 243.421 65.325Q243.528 66.3531 243.583 67.385Q243.637 68.4168 243.637 69.4499ZM255.876 166.184C255.876 166.184 255.876 218.648 255.876 229.195C255.876 248.373 217.58 230.097 198.68 232.415C174.022 232.415 147.835 249.235 142.323 229.195C140.391 222.171 142.125 174.044 142.323 166.184C142.323 142.926 144.686 114.921 164.623 104.515C167.716 102.901 172.237 106.038 178.346 109.561C182.103 111.729 186.307 113.986 190.308 115.514C192.688 116.423 195.093 116.862 197.025 117.454C198.259 117.832 199.369 118.109 200.262 118.384C200.938 118.591 203.121 119.388 203.621 119.388C207.677 119.388 214.067 117.234 222.219 112.331C225.475 110.372 232.279 105.845 234.656 107.059C254.424 117.154 256.635 139.597 255.876 166.184ZM188.545 115.026C188.545 115.026 185.576 116.167 187.132 120.238C188.714 124.376 187.746 127.588 188.545 132.356C190.31 142.894 194.028 156.639 193.936 170.825C193.772 196.358 194.981 227.741 194.981 232.358L204.599 232.358L211.72 232.953C211.72 232.953 211.72 201.105 211.72 170.825C211.72 157.607 208.731 144.466 207.439 134.987C206.466 127.839 204.382 120.589 203.621 119.388M178.744 31.659L174.234 38.9705L175.631 41.7594L179.781 46.6641L175.631 52.0015L177.274 55.3194L175.631 59.694L177.274 66.1054L174.234 68.3504L171.811 76.3325L167.703 79.9389L164.623 87.4878L159.87 90.8969L164.087 96.3924L166.703 95.2337L167.703 98.4697L170.46 98.4697L172.514 100.335L175.631 102.05L177.274 102.711L178.744 104.515L181.382 104.515L183.272 108.34L185.458 109.915L197.891 111.483L192.067 104.515L188.759 100.631L184.819 96.3924L181.9 93.3099L177.84 89.9349L178.346 89.2881L178.346 89.2881L178.346 89.2881L182.563 83.6275L185.656 77.6599L188.759 69.4499L190.542 63.275L192.067 55.2724L192.067 47.8148L191.269 41.1885L190.308 35.6483L188.759 28.3624" fill-rule="nonzero" transform="matrix(1, 0, 0, 1, 0, 0)" fill="#8fdd28" fill-opacity="1" stroke="#000000" stroke-width="0" stroke-linecap="round" stroke-linejoin="round" opacity="1" id="Path" />
  <path d="M183.799 50.8932Q183.799 52.1426 183.733 53.3904Q183.668 54.6383 183.537 55.8815Q183.406 57.1249 183.211 58.3608Q183.015 59.5966 182.754 60.822Q182.493 62.0472 182.169 63.2592Q181.845 64.4712 181.457 65.6666Q181.069 66.8622 180.62 68.0385Q180.17 69.2149 179.659 70.3691Q179.148 71.5234 178.577 72.6527Q178.006 73.7822 177.376 74.8841Q176.747 75.9858 176.06 77.0575Q175.375 78.1291 174.632 79.1679Q173.89 80.2067 173.095 81.2102Q172.299 82.2139 171.453 83.1798Q170.606 84.1457 169.709 85.0713Q168.812 85.9968 167.868 86.8796Q166.924 87.7636 165.934 88.6026Q164.945 89.4416 163.913 90.2344Q162.88 91.0273 161.808 91.7705Q160.735 92.5148 159.625 93.2095Q158.516 93.9031 157.37 94.5459Q156.225 95.1876 155.047 95.7773Q153.869 96.3659 152.662 96.9002Q151.455 97.4345 150.221 97.9123Q148.988 98.39 147.731 98.8113Q146.474 99.2325 145.196 99.5949Q143.918 99.9572 142.623 100.261Q141.328 100.564 140.018 100.809Q138.708 101.052 137.387 101.236Q136.066 101.419 134.738 101.542Q133.409 101.664 132.075 101.725Q130.742 101.786 129.406 101.786Q128.071 101.786 126.738 101.725Q125.403 101.664 124.074 101.542Q122.746 101.419 121.425 101.236Q120.104 101.052 118.795 100.809Q117.485 100.564 116.19 100.261Q114.895 99.9572 113.617 99.5949Q112.339 99.2325 111.082 98.8113Q109.825 98.39 108.591 97.9123Q107.358 97.4345 106.151 96.9002Q104.943 96.3659 103.766 95.7773Q102.588 95.1876 101.443 94.5459Q100.297 93.9031 99.1874 93.2095Q98.0771 92.5148 97.0046 91.7705Q95.9321 91.0273 94.9 90.2344Q93.8678 89.4416 92.8784 88.6026Q91.8891 87.7636 90.9449 86.8796Q90.0007 85.9968 89.104 85.0713Q88.2073 84.1457 87.3602 83.1798Q86.5131 82.2139 85.7178 81.2102Q84.9223 80.2067 84.1804 79.1679Q83.4386 78.1291 82.7522 77.0575Q82.0657 75.9858 81.4362 74.8841Q80.8068 73.7822 80.2359 72.6527Q79.665 71.5234 79.154 70.3691Q78.6431 69.2149 78.1931 68.0385Q77.7433 66.8622 77.3557 65.6666Q76.9681 64.4712 76.6437 63.2592Q76.3193 62.0472 76.0587 60.822Q75.7982 59.5966 75.6023 58.3608Q75.4065 57.1249 75.2756 55.8815Q75.1446 54.6383 75.0791 53.3904Q75.0136 52.1426 75.0136 50.8932Q75.0136 49.6438 75.0791 48.396Q75.1446 47.1481 75.2756 45.9047Q75.4065 44.6614 75.6023 43.4256Q75.7982 42.1898 76.0587 40.9644Q76.3193 39.739 76.6437 38.5271Q76.9681 37.3152 77.3557 36.1196Q77.7433 34.924 78.1931 33.7477Q78.6431 32.5714 79.154 31.4171Q79.665 30.2629 80.2359 29.1335Q80.8068 28.0041 81.4362 26.9023Q82.0657 25.8004 82.7522 24.7288Q83.4386 23.6573 84.1804 22.6184Q84.9223 21.5796 85.7178 20.5761Q86.5131 19.5726 87.3602 18.6068Q88.2073 17.6411 89.104 16.7154Q90.0007 15.7897 90.9449 14.9063Q91.8891 14.0229 92.8784 13.1838Q93.8678 12.3448 94.9 11.5522Q95.9321 10.7596 97.0046 10.0153Q98.0771 9.2711 99.1874 8.57706Q100.297 7.88291 101.443 7.24057Q102.588 6.59834 103.766 6.00932Q104.943 5.42041 106.151 4.88621Q107.358 4.35212 108.591 3.874Q109.825 3.39588 111.082 2.975Q112.339 2.55412 113.617 2.19141Q114.895 1.82869 116.19 1.52518Q117.485 1.22155 118.795 0.977821Q120.104 0.734085 121.425 0.550823Q122.746 0.367447 124.074 0.245003Q125.403 0.122559 126.738 0.0612793Q128.071 0 129.406 0Q130.742 0 132.075 0.0612793Q133.409 0.122559 134.738 0.245003Q136.066 0.367447 137.387 0.550823Q138.708 0.734085 140.018 0.977821Q141.328 1.22155 142.623 1.52518Q143.918 1.82869 145.196 2.19141Q146.474 2.55412 147.731 2.975Q148.988 3.39588 150.221 3.874Q151.455 4.35212 152.662 4.88621Q153.869 5.42041 155.047 6.00932Q156.225 6.59834 157.37 7.24057Q158.516 7.88291 159.625 8.57706Q160.735 9.2711 161.808 10.0153Q162.88 10.7596 163.913 11.5522Q164.945 12.3448 165.934 13.1838Q166.924 14.0229 167.868 14.9063Q168.812 15.7897 169.709 16.7154Q170.606 17.6411 171.453 18.6068Q172.299 19.5726 173.095 20.5761Q173.89 21.5796 174.632 22.6184Q175.375 23.6573 176.06 24.7288Q176.747 25.8004 177.376 26.9023Q178.006 28.0041 178.577 29.1335Q179.148 30.2629 179.659 31.4171Q180.17 32.5714 180.62 33.7477Q181.069 34.924 181.457 36.1196Q181.845 37.3152 182.169 38.5271Q182.493 39.739 182.754 40.9644Q183.015 42.1898 183.211 43.4256Q183.406 44.6614 183.537 45.9047Q183.668 47.1481 183.733 48.396Q183.799 49.6438 183.799 50.8932ZM198.602 167.878C198.602 167.878 198.602 231.325 198.602 244.08C198.602 267.273 152.267 245.292 129.406 248.095C99.5829 248.095 67.9274 268.314 61.26 244.08C58.9233 235.586 61.0209 177.383 61.26 167.878C61.26 139.75 62.5631 108.042 86.6777 95.4588C90.4178 93.5073 96.5444 97.5257 103.932 101.786C114.205 107.711 124.64 110.847 129.406 110.847C132.061 110.847 129.402 110.847 129.406 110.847C134.311 110.847 146.246 107.717 156.106 101.786C160.045 99.4171 165.967 93.9908 168.842 95.4588C192.752 107.667 199.52 135.726 198.602 167.878Z" fill-rule="nonzero" transform="matrix(1, 0, 0, 1, 0, 0)" fill="#8fdd28" fill-opacity="1" stroke="#000000" stroke-width="0" stroke-linecap="round" stroke-linejoin="round" opacity="1" id="Path" />
</svg>