<!-- Created with PixiEditor (https://pixieditor.net) -->
<svg version="1.1" viewBox="0 0 187 208" xmlns="http://www.w3.org/2000/svg">
  <path d="M19.3673 10.5205L19.3673 10.5205C19.3673 10.5205 -0.00202465 10.5205 -0.00202465 31.154L-0.00202465 176.937C-0.00202465 176.937 2.32642 197.854 19.3673 197.469L167.628 197.469C167.628 197.469 186.998 197.469 186.998 176.937L186.998 31.154C186.998 31.154 186.998 10.5205 167.628 10.5205L19.3673 10.5205M78.6227 80.632L108.275 80.632L108.275 86.1407C108.275 86.1407 119.158 78.2248 132.51 78.2248C145.862 78.2248 152.814 83.5384 152.814 83.5384C152.814 83.5384 159.272 87.0822 163.625 93.5467C167.978 100.011 167.329 103.646 167.63 103.997L167.63 171.471L137.996 171.471L137.996 106.83C137.996 106.83 138.92 97.678 123.38 97.678C107.839 97.678 108.275 106.83 108.275 106.376L108.275 171.471L78.6227 171.471L78.6227 80.632ZM48.9705 80.632L48.9705 171.471L19.3693 171.471L19.3693 80.632L48.9705 80.632ZM19.3693 51.3826C19.3693 51.3826 19.3693 51.3826 19.3693 51.3826C19.3693 51.3826 19.3693 36.5233 34.1699 36.5233C48.9704 36.5233 48.9705 51.3826 48.9705 51.3826C48.9705 51.3826 48.9704 66.2419 34.1699 66.2419C18.7263 66.2419 19.3693 51.3826 19.3693 51.3826" fill-rule="nonzero" transform="matrix(1, 0, 0, 1, 0, 0)" fill="#8fdd28" fill-opacity="1" stroke="#000000" stroke-width="0" stroke-linecap="round" stroke-linejoin="round" opacity="1" id="Rectangle (Shape 3) (Shape 3)" />
</svg>