<!-- Created with PixiEditor (https://pixieditor.net) -->
<svg version="1.1" viewBox="0 0 512 512" xmlns="http://www.w3.org/2000/svg">
  <path d="M4.49315 508.878L4.49315 3.51219L509.26 3.51219L509.26 508.878L4.49315 508.878ZM17.0228 70.7805L17.0228 492.146L496.731 492.146L496.731 70.7805L17.0228 70.7805ZM17.0228 54.0488L42.3379 54.0488L42.3379 20.2439L17.0228 20.2439L17.0228 54.0488ZM67.9087 20.2439L67.9087 54.0488L193.717 54.0488L193.717 20.2439L67.9087 20.2439ZM320.037 54.0488L445.845 54.0488L445.845 20.2439L320.037 20.2439L320.037 54.0488ZM471.415 20.2439L471.415 54.0488L496.731 54.0488L496.731 20.2439L471.415 20.2439Z" fill-rule="nonzero" transform="matrix(1, 0, 0, 1, 0, 0)" fill="#8fdd28" fill-opacity="1" stroke="#8fdd28" stroke-width="2" stroke-linecap="round" stroke-linejoin="round" opacity="1" id="Text" />
  <path d="M164.001 375.083Q153.275 443.998 92.8006 443.998L85.2698 443.998Q54.6903 443.998 37.1185 473.318Q40.3134 414.427 67.9262 381.348Q95.5391 348.269 143.69 345.763L216.26 247.026Q245.242 207.682 313.247 167.837L399.965 116.965Q456.56 83.6358 464.319 83.6358Q476.642 83.6358 476.642 96.1657Q476.642 106.44 457.701 129.997Q449.257 140.522 439.901 152.551Q431.685 162.825 427.806 167.336L367.56 237.253Q313.475 300.905 270.801 322.206L164.001 375.083ZM257.108 316.442L261.444 314.187Q304.575 294.139 373.265 213.196L423.47 154.054Q440.585 134.257 460.668 107.693Q461.809 106.19 466.373 100.677L462.037 95.4139Q452.909 99.4236 438.303 108.696Q426.437 115.963 407.952 126.989L346.793 162.575Q248.893 219.711 221.737 259.055L219.226 262.564Q248.893 283.113 257.108 316.442ZM225.844 330.225Q219.226 307.421 198.003 292.385L153.047 352.028Q159.665 354.784 161.262 362.803L225.844 330.225ZM21.0908 74.5292L21.0908 486.808L490.905 486.808L490.905 74.5292" fill-rule="nonzero" transform="matrix(1, 0, 0, 1, 0, 0)" fill="#8fdd28" fill-opacity="1" stroke="#8fdd28" stroke-width="2" stroke-linecap="round" stroke-linejoin="round" opacity="1" id="Text" />
</svg>